# xmcd
#
# Track frame offsets: 
#        150
#        16355
#        35450
#        50368
#        60333
#        70417
#        81005
#        93072
#        105848
#        115233
#        126585
#        136575
#        146072
#        156832
#        170312
#        182714
#        194201
#        209687
#        228723
#        242890
#        261822
#        272120
#
# Disc length: 3751 seconds
#
# Revision: 0
# Processed by: cddbd v1.5.2PL0 Copyright (c) Steve Scherf et al.
# Submitted via: ExactAudioCopy v1.0b3
#
DISCID=3e0ea516
DTITLE=Various Artist - Northern Soul From The Ritz Brighouse
DYEAR=1900
DGENRE=Northern Soul
TTITLE0=Alfie Davidson - Love Is Serious Business
TTITLE1=Clarence Carter - Messin' With My Heart
TTITLE2=Ronnie McNeir - Lucky Number
TTITLE3=Ann Sexton - You've Been Gone Too Long
TTITLE4=Majestics - (I Love Her So Much) It Hurts Me
TTITLE5=Phonetics - Just A Boys Dream
TTITLE6=Kurt Harris - Emperor Of My Baby's Heart
TTITLE7=Bobby Kline - Say Something Nice
TTITLE8=George Lemons - Fascinating Girl
TTITLE9=Bob Harper - Mr. Soul
TTITLE10=Al Apollo - I'm Walkin"
TTITLE11=Freddie Houston - Soft Walkin'
TTITLE12=The 5 Royales - Catch That Teardrop
TTITLE13=Wade Flemmons - Jeanette
TTITLE14=Eddie Spencer - If This Is Love
TTITLE15=Constellations - I Dont Know About You
TTITLE16=Jeff Perry - Love Don't Come No Stronger
TTITLE17=Tyrone Barkley - Man Of Value
TTITLE18=Bay Brothers - What Does It Take To Win Your Love
TTITLE19=Brothers - Are You Ready For This
TTITLE20=Salavadors - Stick By Me Baby
TTITLE21=Jelly Beans - You Don't Mean Me So Good
EXTD=
EXTT0=
EXTT1=
EXTT2=
EXTT3=
EXTT4=
EXTT5=
EXTT6=
EXTT7=
EXTT8=
EXTT9=
EXTT10=
EXTT11=
EXTT12=
EXTT13=
EXTT14=
EXTT15=
EXTT16=
EXTT17=
EXTT18=
EXTT19=
EXTT20=
EXTT21=
PLAYORDER=
